<svg id="svg8" height="32" viewBox="0 0 8.4666665 8.4666669" width="32" xmlns="http://www.w3.org/2000/svg" xmlns:cc="http://creativecommons.org/ns#" xmlns:dc="http://purl.org/dc/elements/1.1/" xmlns:inkscape="http://www.inkscape.org/namespaces/inkscape" xmlns:rdf="http://www.w3.org/1999/02/22-rdf-syntax-ns#" xmlns:sodipodi="http://sodipodi.sourceforge.net/DTD/sodipodi-0.dtd" xmlns:svg="http://www.w3.org/2000/svg"><g id="layer1" fill="none" stroke="#000" stroke-width=".265" transform="translate(0 -288.533)"><g stroke-linecap="round" stroke-linejoin="round"><path id="circle8058" d="m7.5406247 292.76665a3.3072918 3.307292 0 0 1 -3.3072918 3.3073 3.3072918 3.307292 0 0 1 -3.30729173-3.3073 3.3072918 3.307292 0 0 1 3.30729173-3.30729 3.3072918 3.307292 0 0 1 3.3072918 3.30729z"/><path id="circle8060" d="m5.1593746 292.76665a.92604169.92604176 0 0 1 -.9260417.92604.92604169.92604176 0 0 1 -.9260417-.92604.92604169.92604176 0 0 1 .9260417-.92604.92604169.92604176 0 0 1 .9260417.92604z"/><path id="circle8062" d="m4.5640621 292.76665a.33072886.33072888 0 0 1 -.3307292.33073.33072886.33072888 0 0 1 -.3307292-.33073.33072886.33072888 0 0 1 .3307292-.33073.33072886.33072888 0 0 1 .3307292.33073z"/></g><path id="path8064" d="m.99217642 292.43595h2.38125008"/><path id="path8075" d="m.99217642 292.96512h2.38125008"/><path id="path8077" d="m5.0932182 292.43595h2.38125"/><path id="path8079" d="m5.0932182 292.96512h2.38125"/></g></svg>